<?xml version="1.0" encoding="UTF-8" standalone="no"?>
<!-- Created with Inkscape (http://www.inkscape.org/) -->

<svg
   width="297mm"
   height="106mm"
   viewBox="0 0 297 106"
   version="1.1"
   id="svg1"
   xml:space="preserve"
   inkscape:version="1.3.2 (091e20e, 2023-11-25, custom)"
   sodipodi:docname="logo_Malinowa.svg"
   inkscape:export-filename="logo_Malinowa.png"
   inkscape:export-xdpi="300"
   inkscape:export-ydpi="300"
   xmlns:inkscape="http://www.inkscape.org/namespaces/inkscape"
   xmlns:sodipodi="http://sodipodi.sourceforge.net/DTD/sodipodi-0.dtd"
   xmlns="http://www.w3.org/2000/svg"
   xmlns:svg="http://www.w3.org/2000/svg"><sodipodi:namedview
     id="namedview1"
     pagecolor="#ffffff"
     bordercolor="#666666"
     borderopacity="1.0"
     inkscape:showpageshadow="2"
     inkscape:pageopacity="0.0"
     inkscape:pagecheckerboard="0"
     inkscape:deskcolor="#d1d1d1"
     inkscape:document-units="mm"
     inkscape:zoom="0.5"
     inkscape:cx="540"
     inkscape:cy="151"
     inkscape:window-width="1366"
     inkscape:window-height="697"
     inkscape:window-x="-8"
     inkscape:window-y="-8"
     inkscape:window-maximized="1"
     inkscape:current-layer="layer4"
     showguides="false" /><defs
     id="defs1" /><g
     inkscape:label="Warstwa 1"
     inkscape:groupmode="layer"
     id="layer1"><g
       inkscape:groupmode="layer"
       id="layer4"
       inkscape:label="Warstwa 4"><rect
         style="display:none;opacity:1;fill:#999999;stroke:none;stroke-width:1.4584;stroke-linecap:round;stroke-linejoin:round;stroke-dasharray:none"
         id="rect30"
         width="297"
         height="106"
         x="1.4210855e-14"
         y="0"
         ry="0" /><path
         style="opacity:1;fill:#000000;stroke:#000000;stroke-width:0.662001;stroke-linecap:round;stroke-linejoin:bevel;stroke-dasharray:none"
         id="path57"
         d="m 237.33789,74.342746 c -0.45325,-0.224523 -0.948,-0.202679 -1.44262,-0.18837 -0.3503,0.01013 -0.70217,0.01529 -1.04953,0.06171 -1.1764,0.157245 -1.823,0.371711 -2.97589,0.680418 -1.64776,0.636702 -2.18619,0.757338 -3.85324,1.972355 -0.35407,0.258067 -0.64272,0.61023 -0.87176,0.983737 -0.20165,0.328856 -0.46965,0.707716 -0.39786,1.086736 0.23599,1.245942 1.99597,2.041245 2.79352,2.567615 0.96613,0.416123 1.90571,0.900316 2.89839,1.248368 2.72919,0.956897 5.61466,1.544698 8.45159,2.048171 3.90602,0.693203 6.89896,1.074319 10.88391,1.348846 1.97372,0.135972 3.95313,0.170526 5.92969,0.255788 3.8678,-0.02756 7.68426,0.0493 11.53771,-0.379103 1.70415,-0.189457 3.39711,-0.489071 5.07296,-0.851775 1.88669,-0.408332 5.03515,-1.27176 6.85533,-2.315107 0.81994,-0.470006 1.51391,-1.131769 2.27089,-1.697651 0.14433,-0.48445 0.49659,-0.951876 0.43296,-1.453346 -0.0604,-0.475726 -0.40682,-0.902795 -0.77139,-1.214316 -1.10495,-0.944173 -2.5431,-1.066908 -3.88165,-1.366864 0,0 -0.0665,0.04446 -0.0665,0.04446 v 0 c 0.47361,0.333701 0.96266,0.646504 1.42084,1.001099 0.70223,0.54348 1.67963,1.247994 1.9299,2.201063 0.10131,0.385861 -0.0462,0.796542 -0.0693,1.194811 -0.30383,0.336613 -0.52486,0.77288 -0.91149,1.009835 -2.09037,1.281197 -4.80632,2.041234 -7.14563,2.547924 -1.67569,0.36295 -3.36847,0.662842 -5.07249,0.852459 -3.85207,0.428646 -7.67082,0.352009 -11.5372,0.379769 -5.05747,-0.217881 -6.62994,-0.182028 -11.61523,-0.799499 -4.47302,-0.554022 -8.90004,-1.374267 -13.02735,-3.259786 -0.89412,-0.408469 -1.71889,-0.954257 -2.57833,-1.431382 -0.70892,-0.627187 -2.08235,-1.505247 -2.26169,-2.653054 -0.0526,-0.336706 0.13516,-0.680495 0.30549,-0.975664 0.19706,-0.341469 0.52293,-0.590368 0.77378,-0.894525 0.0147,-0.01786 0.0127,-0.04451 0.019,-0.06677 0.48435,-0.197454 0.9687,-0.394904 1.45305,-0.592357 1.23578,-0.329298 1.59749,-0.47901 2.83941,-0.61445 0.92351,-0.100714 1.85977,0.01987 2.78204,-0.109649 z" /><path
         id="path31"
         style="opacity:1;fill:#ffffff;stroke:none;stroke-width:1.662;stroke-linecap:round;stroke-linejoin:round;stroke-dasharray:none"
         d="m 265.78326,14.970662 c -3.54396,-0.07131 -4.7718,1.615406 -4.7718,1.962671 0,0.463021 -1.05834,1.455214 0.33073,5.886979 1.38906,4.431767 0.79375,6.482292 0.66146,6.217709 -0.1323,-0.264584 -3.43959,-2.778127 -5.29167,-5.225521 -1.85208,-2.447394 -7.47448,-2.910409 -6.81302,4.828646 0,0 -9.72501,-1.700299 -9.63146,9.431465 0,0 -4.35009,1.883418 -5.26118,7.177339 -0.19649,2.006976 0.95912,5.263763 0.95912,5.263763 -3.46113,3.227275 -0.817,8.686808 -0.817,8.686808 -3.61971,3.878883 -0.10013,10.463904 0.7276,10.451041 -1.04674,3.897264 1.82474,7.623171 5.89357,8.750613 1.72109,4.349057 5.78569,6.563858 10.46737,4.595373 2.53876,1.851801 5.14656,1.533659 7.60257,-0.168393 4.55685,1.496977 7.48091,-1.168611 8.05908,-2.730865 3.21513,0.162489 7.53797,-2.441824 6.6567,-5.190201 0,0 6.16759,-2.147679 4.3155,-7.836214 -0.19015,-0.228185 6.85511,-3.521385 4.49792,-12.567708 0,0 5.75468,-3.77032 1.45521,-10.31875 0,0 5.15936,-2.976568 -0.92604,-7.540625 l -3.63802,-1.785938 c 0,0 1.85207,-6.151561 -8.40053,-5.093229 0,0 2.11668,-5.688543 2.05053,-6.680729 -0.0661,-0.992187 3.17499,-5.225523 -3.77032,-7.342188 -1.73632,-0.529166 -3.175,-0.748274 -4.35632,-0.772046 z m -37.72997,57.687052 c 2.1229,-2.882656 -0.92762,-5.212218 -0.92762,-5.212218 l 3.88865,-17.406173 c 0,0 1.75289,-1.488284 1.71979,-3.869531 -0.0273,-1.963666 -2.36866,-2.458918 -3.19773,-2.57452 -1.44291,0.07251 -3.24458,0.483733 -5.4343,1.648478 0,0 -7.64071,-4.832767 -14.00173,4.802291 0,0 -4.45115,-11.765847 -11.7476,-5.404838 0,0 -3.59359,-4.232219 -8.36435,-0.116272 0,0 -5.17695,-6.42492 -12.38684,4.952152 -0.84583,-2.801522 -6.90096,-11.531948 -18.65312,-1.852083 0.59531,0 -4.63022,-8.797389 -12.7,-1.058333 -6.9e-4,-0.0062 -3.71974,-6.688469 -11.57552,0.06614 1.02146,-1.418539 2.18165,-2.476624 2.64428,-3.415295 0.27883,-0.876997 0.70229,-3.540312 -1.39733,-5.331974 -1.23524,-1.054064 -2.74742,-1.69994 -5.05137,-0.654741 0.0462,0.0252 -1.2557,-2.065247 -3.60392,-1.512052 0,0 3.0425,-6.252263 -4.72167,-6.907072 -7.76417,-0.654809 -8.23154,4.022494 -8.23154,4.022494 l -3.36775,10.383345 c 0,0 -4.30321,-1.12267 -8.13853,1.309481 0,0 -7.763956,-6.080066 -16.650659,6.82904 0.09983,-0.291256 3.0988,-9.627744 4.068486,-14.578955 0.700494,-3.576718 1.614721,-7.89151 -4.894792,-8.202083 -3.93134,-0.187567 -6.614583,0 -6.614583,0 -3.655925,0.197618 -5.126599,0.466256 -8.449097,7.206795 -2.361786,4.791489 -5.044653,8.932788 -5.044653,8.932788 L 64.690625,32.940625 c -0.466397,-0.641295 0.730815,-4.709542 -8.443929,-4.737179 -8.26755,-0.0249 -11.733741,0.154561 -16.068787,0.209807 -3.733665,0.04758 -9.647582,0.257229 -12.106754,7.718392 -2.356129,7.148529 -1.683571,14.537833 3.811137,16.123563 3.792944,1.094615 7.129078,0.224457 8.202083,-2.38125 1.396877,-3.392203 -0.03307,-7.276041 -1.951302,-7.904427 -1.918227,-0.628384 -1.256769,-1.752863 0.264583,-1.686719 1.521353,0.06615 6.383073,-0.06614 6.383073,-0.06614 0,0 -0.312193,9.630619 -8.400521,20.835937 -6.997923,9.694705 -15.959077,13.94814 -19.167822,5.504057 -0.224564,0.299418 -1.296721,-6.058228 0.374137,-4.490165 2.687969,2.522597 7.312459,2.799728 9.82214,-3.133659 2.283035,-5.397552 -3.367727,-13.283435 -13.376961,-8.32559 0,0 -10.1963049,5.14525 -5.0513716,21.421948 0,0 2.7901416,12.035038 13.1123776,11.579138 5.30937,-0.234497 13.758347,1.719772 27.119792,-18.25625 0.396875,0.529167 -0.04289,9.297763 5.423958,10.847917 2.645213,0.750064 6.350007,0.793738 12.567709,-12.170833 0.132292,0.793749 -1.852082,8.334377 -0.79375,10.31875 1.058333,1.984373 2.910422,4.365624 7.9375,3.571875 5.027079,-0.79375 8.466666,-2.248959 8.466666,-2.248959 0,0 6.085422,3.704163 10.583334,0.132292 0,0 5.946354,3.242019 11.371913,-0.125574 0,0 2.61903,3.741776 11.8799,-0.09353 0,0 6.92253,4.396152 12.25455,-0.842326 0,0 0.28063,0.935831 4.95783,1.216463 4.67722,0.280633 5.70602,-0.09391 6.64146,-1.403532 0,0 0.38706,5.217251 8.3907,2.902149 8.00364,-2.315103 6.48229,-4.101042 6.48229,-4.101042 0,0 6.6423,7.466605 18.24178,-1.139465 0,0 4.77068,7.576836 15.43472,2.338358 0,0 6.73861,5.878704 14.67611,-1.661914 0,0 5.68855,5.95312 12.17083,1.322917 0,0 2.92464,5.256095 9.87262,0.720877 0.87774,-0.531723 1.31137,-1.001345 2.28067,-2.278797 z"
         sodipodi:nodetypes="ssssscccccccccccccccccssscccsccccccccccsccsccccsscsccssssssscscssccscscsscccccscsccccccc" /></g><path
       style="fill:#ffffff;stroke:#000000;stroke-width:0.936;stroke-linecap:round;stroke-linejoin:round;stroke-dasharray:none"
       d="m 249.0976,67.625858 c -0.85837,0.968396 -3.40312,3.04212 -3.7e-4,7.751018 2.88286,3.989442 6.3099,0.302578 6.35161,0.259534 0.18771,-0.134779 2.69048,-2.702447 -0.25601,-6.934343 -2.82227,-4.053492 -4.87105,-1.503574 -6.09523,-1.076209 z"
       id="path10-8-6-4-4-0-2-6-9-1-5-5-5"
       sodipodi:nodetypes="cscsc" /><path
       style="opacity:1;fill:#000000;stroke:none;stroke-width:2;stroke-linecap:round;stroke-linejoin:round;stroke-dasharray:none"
       d="m 274.33984,52.519791 c 0.19844,-0.429948 0.49609,-1.488281 0.49609,-1.488281 l 0.52917,1.091406"
       id="path34" /><path
       style="fill:none;stroke:#000000;stroke-width:2.844;stroke-linecap:round;stroke-linejoin:round;stroke-dasharray:none"
       d="m 252.74323,33.734375 c -0.92841,-0.834125 -3.51512,-4.270866 -7.34219,1.190625 -3.84871,5.492372 0.49224,6.719376 0.92604,6.81302 0,0 3.96875,2.645834 6.74688,-1.785937 2.77812,-4.431771 -0.33073,-6.217708 -0.33073,-6.217708 z"
       id="path10"
       sodipodi:nodetypes="cscsc" /><path
       style="fill:none;stroke:#000000;stroke-width:1.83;stroke-linecap:round;stroke-linejoin:round;stroke-dasharray:none"
       d="m 246.75152,42.26171 c -0.25161,-0.07548 -4.71892,-4.537095 -7.34219,1.190625 -2.42137,5.286886 0.45975,6.777152 0.92604,6.81302 0,0 3.96875,2.645834 6.74688,-1.785937 2.77812,-4.431771 -0.33073,-6.217708 -0.33073,-6.217708 z"
       id="path10-8"
       sodipodi:nodetypes="cscsc" /><path
       style="fill:#ffffff;stroke:#000000;stroke-width:3.1356;stroke-linecap:round;stroke-linejoin:round;stroke-dasharray:none"
       d="m 255.76449,43.359934 c 0,0 -3.37877,-5.942988 -7.00856,0.621661 -3.18498,5.760176 1.08999,7.002285 1.58594,6.704715 0.0156,0.01172 2.13418,1.883295 5.70555,-2.007359 3.66053,-3.987786 -0.22319,-5.310483 -0.28293,-5.319017 z"
       id="path10-8-6"
       sodipodi:nodetypes="cscsc" /><path
       style="fill:none;stroke:#000000;stroke-width:3.13560251;stroke-linecap:round;stroke-linejoin:round;stroke-dasharray:none"
       d="m 265.05605,42.708071 c 0,0 -3.03514,-2.04001 -5.52295,0.895614 -2.48782,2.935623 0.69659,5.1249 0.69659,5.1249 0,0 2.98537,1.990253 5.07514,-1.34342 2.08977,-3.333674 -0.24878,-4.677094 -0.24878,-4.677094 z"
       id="path10-8-6-4" /><path
       style="fill:none;stroke:#000000;stroke-width:3.13560251;stroke-linecap:round;stroke-linejoin:round;stroke-dasharray:none"
       d="m 267.6464,45.677885 c -2.16768,-0.481708 -3.56635,1.444296 -2.29741,6.792302 1.35909,5.727925 6.22185,2.284519 6.22214,2.284133 0.16788,0.111917 4.84659,-1.652912 1.5217,-6.553641 -2.83087,-4.172569 -5.44643,-2.522794 -5.44643,-2.522794 z"
       id="path10-8-6-4-4"
       sodipodi:nodetypes="cscsc" /><path
       style="fill:none;stroke:#000000;stroke-width:3.13560251;stroke-linecap:round;stroke-linejoin:round;stroke-dasharray:none"
       d="m 276.9397,44.669985 c 0,0 -3.35819,1.80029 -1.86785,5.522319 1.49034,3.722035 5.05876,1.85706 5.05876,1.85706 0,0 3.28812,-1.77872 1.23718,-5.328282 -2.05093,-3.549555 -4.42809,-2.051097 -4.42809,-2.051097 z"
       id="path10-8-6-4-4-0" /><path
       style="fill:none;stroke:#000000;stroke-width:2.026;stroke-linecap:round;stroke-linejoin:round;stroke-dasharray:none"
       d="m 275.61353,53.113936 c -0.85341,-0.07758 -4.54474,0.147099 -4.79153,5.150096 -0.32137,6.515045 4.56257,4.674229 4.64543,4.549945 0.15896,-0.03974 3.15554,-1.001172 4.0015,-5.249136 1.13639,-5.706344 -3.47806,-4.450905 -3.8554,-4.450905 z"
       id="path10-8-6-4-4-0-2"
       sodipodi:nodetypes="cscsc" /><path
       style="fill:#ffffff;stroke:#000000;stroke-width:2.667;stroke-linecap:round;stroke-linejoin:round;stroke-dasharray:none"
       d="m 260.44979,47.522933 c -2.73296,-0.258474 -5.97887,-0.178545 -5.47235,5.442505 0.58757,6.520502 5.2728,4.823535 5.30549,4.808278 0.20938,0.123166 2.93548,0.77744 4.57006,-5.547168 1.42718,-5.522125 -4.34899,-4.705906 -4.4032,-4.703615 z"
       id="path10-8-6-4-4-0-2-6"
       sodipodi:nodetypes="cscsc" /><path
       style="fill:#ffffff;stroke:#000000;stroke-width:1.751;stroke-linecap:round;stroke-linejoin:round;stroke-dasharray:none"
       d="m 245.51096,52.015912 c -0.92894,2.270519 -2.716,4.729186 2.60036,7.591377 3.89445,2.096671 4.91162,-1.319253 6.61219,-2.393295 0.42544,-0.368711 2.11858,-4.26495 -3.07913,-6.833186 -4.5895,-2.267714 -6.10183,1.600877 -6.13342,1.635104 z"
       id="path10-8-6-4-4-0-2-6-9"
       sodipodi:nodetypes="cscsc" /><path
       style="fill:none;stroke:#000000;stroke-width:1.608;stroke-linecap:round;stroke-linejoin:round;stroke-dasharray:none"
       d="m 272.12117,63.482671 c 0,0 -4.02311,-1.006217 -5.63608,2.877811 -1.61296,3.884056 2.62591,4.989772 2.62591,4.989772 0,0.300555 3.0476,1.518169 4.98882,-3.176333 2.33928,-5.657158 -1.92808,-4.72918 -1.97865,-4.69125 z"
       id="path10-8-6-4-4-0-2-6-9-1-5-5-5-7-9"
       sodipodi:nodetypes="cscsc" /><path
       style="fill:#ffffff;stroke:#000000;stroke-width:1.779;stroke-linecap:round;stroke-linejoin:round;stroke-dasharray:none"
       d="m 265.65656,55.100467 c -1.55067,-0.357847 -5.24209,1.417744 -3.70557,6.79328 1.4552,5.091028 5.72593,3.616128 5.72593,3.616128 0.26287,0.473163 2.8097,-0.291054 2.88261,-6.68691 0.0589,-5.167142 -4.79519,-3.722498 -4.90297,-3.722498 z"
       id="path10-8-6-4-4-0-2-6-9-1"
       sodipodi:nodetypes="cscsc" /><path
       style="fill:#ffffff;stroke:#000000;stroke-width:1.221;stroke-linecap:round;stroke-linejoin:round;stroke-dasharray:none"
       d="m 256.34591,57.328697 c -2.94563,0.226587 -6.2394,1.30561 -4.62097,6.870772 1.96326,6.750923 7.13559,3.676733 7.14043,3.657378 0.002,0.0041 5.29576,1.196904 3.59471,-6.763187 -1.243,-5.816617 -5.56989,-4.037102 -6.11417,-3.764963 z"
       id="path10-8-6-4-4-0-2-6-9-1-5"
       sodipodi:nodetypes="cscsc" /><path
       style="opacity:1;fill:#ffffff;stroke:#000000;stroke-width:1.236;stroke-linecap:round;stroke-linejoin:round;stroke-dasharray:none"
       d="m 270.34312,72.12268 c 0,0 -0.65481,6.735193 -6.73519,3.274054"
       id="path36"
       sodipodi:nodetypes="cc" /><path
       style="fill:#ffffff;stroke:#000000;stroke-width:1.056;stroke-linecap:round;stroke-linejoin:round;stroke-dasharray:none"
       d="m 257.72525,68.670017 c 0.001,0.01604 -2.68617,5.127358 1.34018,6.385336 5.04453,1.576094 7.10924,-1.211693 7.10924,-1.211693 0,-0.197793 2.65021,-5.69188 -2.07793,-6.813011 -5.27886,-1.251716 -6.37149,1.639368 -6.37149,1.639368 z"
       id="path10-8-6-4-4-0-2-6-9-1-5-5-5-7"
       sodipodi:nodetypes="cscsc" /><path
       style="fill:none;stroke:#000000;stroke-width:1.53;stroke-linecap:round;stroke-linejoin:round;stroke-dasharray:none"
       d="m 240.68957,50.701029 c -1.43749,-0.975898 -4.12892,5.412999 -1.22402,8.381119 0.71531,0.730873 1.55702,0.566702 3.05982,0.891464"
       id="path11"
       sodipodi:nodetypes="csc" /><path
       style="fill:none;stroke:#000000;stroke-width:1.33;stroke-linecap:round;stroke-linejoin:round;stroke-dasharray:none"
       d="m 239.23963,59.353881 c 0,0 -2.47892,2.291834 -0.88867,6.407784 1.59025,4.115951 4.2095,2.946647 5.14494,1.449939"
       id="path12"
       sodipodi:nodetypes="csc" /><path
       style="fill:none;stroke:#000000;stroke-width:0.83;stroke-linecap:round;stroke-linejoin:round;stroke-dasharray:none"
       d="m 241.15729,68.661541 c -0.80613,-0.690966 -2.17537,4.710221 1.49671,6.454558 3.2175,1.528396 4.58367,0.374179 5.42557,-0.374176"
       id="path13"
       sodipodi:nodetypes="csc" /><path
       style="fill:none;stroke:#000000;stroke-width:1.13;stroke-linecap:round;stroke-linejoin:round;stroke-dasharray:none"
       d="m 242.8255,60.336713 c -0.42161,0.448862 -2.34395,3.452702 1.30013,6.939808 4.02159,3.848353 6.09873,-0.534481 6.27717,-1.129674 0,0 2.34003,-3.871409 -1.83472,-6.351839 -4.17471,-2.480435 -5.74258,0.541705 -5.74258,0.541705 z"
       id="path10-8-6-4-4-0-2-6-9-1-5-5"
       sodipodi:nodetypes="cscsc" /><path
       style="fill:none;stroke:#000000;stroke-width:0.53;stroke-linecap:round;stroke-linejoin:round;stroke-dasharray:none"
       d="m 244.89906,76.145087 c 0,0 0.36283,6.096918 7.75283,3.290588"
       id="path14"
       sodipodi:nodetypes="cc" /><path
       style="fill:none;stroke:#000000;stroke-width:0.536;stroke-linecap:round;stroke-linejoin:round;stroke-dasharray:none"
       d="m 252.10198,77.361163 c 0,0 0.0935,4.583673 4.77076,3.180508 4.67722,-1.403165 2.8531,-5.285255 2.8531,-5.285255"
       id="path15"
       sodipodi:nodetypes="csc" /><path
       style="fill:none;stroke:#000000;stroke-width:2;stroke-linecap:round;stroke-linejoin:round;stroke-dasharray:none"
       d="m 257.67109,44.416927 0.66146,-0.661459"
       id="path20" /><path
       style="fill:none;stroke:#000000;stroke-width:2;stroke-linecap:round;stroke-linejoin:round;stroke-dasharray:none"
       d="m 255.28249,36.341973 1.02898,0.701582"
       id="path21" /><path
       id="path22"
       style="display:inline;opacity:1;fill:none;stroke:#ffffff;stroke-width:1.8;stroke-linecap:round;stroke-linejoin:round;stroke-dasharray:none"
       d="m 252.87552,32.014583 c 25.39847,2.534928 7.51878,7.369661 -1.67742,11.742953 1.0906,-5.467678 4.05637,-6.647244 6.0787,-6.778398 -3.48203,-0.962616 -4.40128,-4.964555 -4.40128,-4.964555 z m 4.40128,4.964555 c 0.59484,0.164445 1.26209,0.243075 2.01487,0.19482 0,0 -0.85144,-0.270271 -2.01487,-0.19482 z m -6.0787,6.778398 c -0.13032,0.653376 -0.23506,1.365734 -0.30695,2.147156 z m 17.97565,-4.281909 -6.16035,2.697509 c 0,0 1.79699,2.970236 7.20008,4.161503 1.87394,2.115531 5.4653,5.010031 5.4653,5.010031 0,0 4.34611,-10.23202 -6.50503,-11.869043 z m -4.91081,1.169437 -9.94048,3.863847 c 0,0 6.10516,0.392413 9.94048,-3.863847 z m 11.49904,2.217436 c 0.1993,0.168639 0.39449,0.320103 0.58601,0.458887 -0.27922,-0.440516 -0.58601,-0.458887 -0.58601,-0.458887 z m 0.58601,0.458887 c 0.46619,0.7355 -1.60248,2.332247 1.03409,6.751543 0.51005,0.854913 -1.08461,1.741409 -1.54414,1.372509 -3.14488,-6.61287 -26.45745,-29.834429 5.67873,-7.392314 -9e-4,0.0057 -2.30841,3.129992 -5.16868,-0.731738 z"
       sodipodi:nodetypes="ccccccccccccccccccccccsccc" /><path
       style="opacity:1;fill:#000000;stroke:none;stroke-width:2;stroke-linecap:round;stroke-linejoin:round;stroke-dasharray:none"
       d="m 270.53021,61.645715 v 1.449937 l 2.10476,0.140317 c 0,0 -0.42095,-1.590254 -0.65482,-1.683798 -0.23386,-0.09354 -1.44994,0.09354 -1.44994,0.09354 z"
       id="path33" /><path
       style="opacity:1;fill:#ffffff;stroke:#000000;stroke-width:0.786;stroke-linecap:round;stroke-linejoin:round;stroke-dasharray:none"
       d="m 259.07103,79.606227 c 0,0 3.695,2.15152 6.31425,-2.619241"
       id="path37"
       sodipodi:nodetypes="cc" /></g><g
     inkscape:groupmode="layer"
     id="layer2"
     inkscape:label="Warstwa 2"><path
       id="path1"
       style="opacity:1;fill:#000000;stroke:#000000;stroke-width:0.5;stroke-linecap:round;stroke-linejoin:round;stroke-dasharray:none"
       d="M 120.85412 31.561381 C 118.8413 31.580613 118.57594 32.592243 118.40104 33.205208 L 108.04353 69.503251 C 107.06133 74.36755 110.28888 73.619279 110.28888 73.619279 C 110.28888 73.619279 115.48038 72.450072 115.83117 71.491243 C 116.18196 70.532415 115.73752 69.900925 114.47467 69.667065 C 113.21182 69.433203 113.90312 67.601042 113.90312 67.601042 C 113.90312 67.601042 123.45495 36.622697 123.92267 34.213932 C 124.3904 31.805169 124.0643 31.71855 121.28045 31.5712 C 121.13024 31.563249 120.98831 31.560099 120.85412 31.561381 z M 56.220341 31.992362 L 40.036833 32.085897 C 40.036833 32.085897 32.833892 31.898516 30.588831 39.75623 C 28.34377 47.613948 33.114449 52.104034 36.201408 49.858972 C 39.288368 47.613911 37.60463 44.714156 35.640202 43.872257 C 33.675773 43.030359 32.051326 41.436292 34.143652 38.820886 C 35.64036 36.950001 37.604732 37.137268 39.569161 37.137268 C 41.53359 37.137268 49.297766 37.043734 49.297766 37.043734 C 49.297766 37.043734 47.800946 48.549657 40.598039 61.64585 C 33.395133 74.742053 24.134471 76.799722 18.989539 74.180485 C 13.844605 71.561245 12.535074 66.042328 13.283427 62.581193 C 14.031781 59.120054 15.06075 55.658986 18.334798 57.06215 C 18.334798 57.06215 19.146003 57.370237 19.223116 58.652234 C 19.321886 60.294263 22.544252 60.803751 23.573238 58.652234 C 24.602225 56.500716 24.789217 50.888198 17.165361 52.478451 C 9.5415052 54.068702 10.664297 68.381009 12.254549 71.655058 C 13.844801 74.929107 19.644535 87.370184 36.763131 74.554622 C 36.763131 74.554622 48.94792 64.955181 52.255208 37.173958 L 54.910343 71.467989 C 54.973953 72.783808 56.291002 73.380026 57.529822 71.935661 C 59.596845 69.525677 71.655058 47.520614 71.655058 47.520614 L 77.853646 36.181771 L 70.345577 70.532646 C 70.345577 70.532646 69.877708 73.245082 71.748592 73.806348 C 73.619477 74.367613 76.961722 73.22548 79.138322 72.403333 C 79.984963 72.083538 80.896354 71.529666 80.697917 70.180729 C 80.566199 69.285341 79.741436 69.57808 78.878906 69.783854 C 77.270403 70.167595 77.489845 69.353904 77.952865 66.44349 C 78.415885 63.533076 85.857292 33.668229 85.857292 33.668229 C 85.857292 33.668229 86.621953 32.132406 83.160815 32.132406 C 79.699679 32.132406 78.488838 31.988478 78.01591 32.085897 C 77.170209 32.260104 76.42194 33.359011 74.695182 36.341968 C 72.262168 40.544978 60.457292 61.449479 60.457292 61.449479 L 59.465104 34.263542 C 59.465104 34.263542 59.523817 31.903796 56.220341 31.992362 z M 128.05058 38.570772 C 127.83899 38.56183 127.60916 38.594248 127.3607 38.680326 C 125.99168 39.154619 125.90715 40.682798 126.42277 41.662573 C 126.89435 42.558661 127.41659 43.364511 128.01544 44.012817 C 128.65751 44.707912 129.28509 45.649394 130.8685 44.386955 C 131.37148 43.985929 132.18438 43.431201 132.73918 42.983423 C 133.5749 42.308928 134.37749 40.911067 133.25388 39.803255 C 131.69173 38.263074 130.0732 40.738599 130.0732 40.738599 C 130.12622 40.729761 129.53173 38.633368 128.05058 38.570772 z M 228.8775 45.868518 C 228.39605 45.857508 227.78126 46.033132 227.11689 46.325338 C 225.59437 46.994986 225.20948 47.175569 224.93407 48.111275 C 224.54903 49.419415 224.07418 50.029505 224.07418 50.029504 C 224.07418 50.029504 224.27261 47.185232 220.56845 46.656067 C 216.86429 46.126902 213.40452 50.663168 211.30803 53.998254 C 208.21651 58.916264 205.35501 67.46461 207.47157 70.997734 C 211.23767 77.284333 218.30668 66.932941 219.24553 65.309192 C 220.19422 63.668436 221.03147 62.266484 221.03147 62.266484 C 221.03147 62.266484 219.31168 70.46857 219.11324 71.857629 C 218.91481 73.246689 220.37003 74.238878 222.35439 73.312838 C 224.33877 72.386798 225.46325 71.725336 225.39709 70.468567 C 225.33099 69.211798 223.54501 69.542525 223.54501 69.542525 L 228.50595 48.50815 C 228.50595 48.50815 229.89501 48.375856 229.89501 46.986796 C 229.89501 46.20545 229.49648 45.882672 228.8775 45.868518 z M 107.13093 46.043701 C 106.64949 46.032693 106.03467 46.208315 105.37031 46.500521 C 103.84779 47.170169 103.46291 47.350752 103.1875 48.286458 C 102.80246 49.594598 102.3276 50.204688 102.3276 50.204687 C 102.3276 50.204687 102.52604 47.360415 98.821875 46.83125 C 95.117716 46.302086 91.657942 50.838351 89.561458 54.173437 C 86.469926 59.091448 83.608423 67.639793 85.725 71.172917 C 89.491094 77.459516 96.560107 67.108124 97.498958 65.484375 C 98.447643 63.843619 99.284896 62.441667 99.284896 62.441667 C 99.284896 62.441667 97.565103 70.643753 97.366667 72.032812 C 97.16823 73.421872 98.623444 74.414061 100.60781 73.488021 C 102.59219 72.561981 103.71667 71.900519 103.65052 70.64375 C 103.58442 69.386981 101.79844 69.717708 101.79844 69.717708 L 106.75937 48.683333 C 106.75937 48.683333 108.14844 48.551039 108.14844 47.161979 C 108.14844 46.380633 107.74992 46.057855 107.13093 46.043701 z M 152.29148 46.626611 C 147.52291 46.631752 141.43891 57.155684 141.43891 57.155684 L 143.54369 49.718929 C 143.54369 49.718929 144.19876 46.585241 141.1118 46.865873 C 138.02483 47.146506 136.61009 50.186601 136.71517 50.186601 C 136.71517 50.186601 136.55508 50.897093 137.60349 51.309013 C 138.39042 51.618196 138.15281 52.558628 137.65051 53.834957 C 137.04247 55.23812 132.31854 71.000317 132.31854 71.000317 C 132.31854 71.000317 131.61706 72.543376 133.86211 72.543376 C 133.86211 72.543376 135.39007 72.533876 136.15396 72.543376 C 137.28513 72.557516 137.67413 72.216166 138.07168 70.672689 C 138.73378 68.102087 141.31111 59.284272 146.16317 54.068534 C 150.17851 49.752238 149.38152 54.843954 148.92269 56.220341 C 148.38426 57.83549 144.75964 71.420964 144.75964 71.420964 C 144.75964 71.420964 144.24525 74.040198 146.20968 73.899882 C 148.17411 73.759565 151.72872 71.514498 151.72872 71.514498 C 151.72872 71.514498 152.47729 70.953422 152.14989 69.737345 C 151.82248 68.521272 150.41924 69.456742 150.41924 69.456742 C 150.41924 69.456742 149.53086 70.158502 150.37273 67.773124 C 151.21463 65.387747 155.09648 55.471549 155.09648 55.471549 C 155.09648 55.471549 158.09008 48.362592 153.22579 46.772339 C 152.92177 46.672948 152.60938 46.626269 152.29148 46.626611 z M 186.51471 46.701542 C 183.09225 46.692993 178.5276 58.340625 178.5276 58.340625 C 178.5276 58.340625 173.56668 71.371356 180.84271 72.429687 C 188.11874 73.48802 190.83073 66.542708 190.83073 66.542708 C 190.83073 66.542708 190.83073 66.873439 191.09531 69.122396 C 191.3599 71.371357 195.00031 76.65689 201.48021 69.188542 C 205.38281 64.69063 206.78879 57.255959 206.90417 54.107292 C 207.22845 45.257416 201.28972 46.86519 201.34792 46.83125 C 198.25556 48.650258 200.88494 51.97409 201.41406 53.445833 C 203.26615 58.34062 202.27396 61.11875 202.27396 61.11875 C 200.95104 67.53489 195.92396 66.807291 195.13021 66.608854 C 194.33646 66.410416 191.2276 63.3677 195.2625 55.165625 C 199.2974 46.96355 194.79948 46.765104 194.79948 46.765104 C 189.83854 46.037501 191.09531 54.371878 190.96302 58.009896 C 190.83073 61.647912 188.38333 69.188538 184.28229 66.741146 C 180.18126 64.293752 184.49265 52.969522 186.5974 50.373669 C 188.70214 47.777817 187.18237 46.865873 187.18237 46.865873 C 186.96605 46.754789 186.74288 46.702112 186.51471 46.701542 z M 167.43422 46.840552 C 164.38864 46.960704 159.8904 48.689902 157.15423 57.529822 C 153.50602 69.316384 160.89612 72.029195 160.89612 72.029195 C 160.89612 72.029195 169.54525 75.413586 173.71188 62.674727 C 176.57769 53.912869 172.97309 47.667451 169.87645 47.052942 C 169.30298 46.93914 168.44942 46.800501 167.43422 46.840552 z M 129.7528 47.010567 C 129.14817 47.017131 128.62057 47.161979 128.62057 47.161979 C 128.62057 47.161979 123.65963 48.782553 123.26276 50.00625 C 122.86588 51.229947 124.65182 51.229948 124.65182 51.229948 C 126.11373 51.341203 125.22957 53.175049 125.22957 53.175049 C 125.22957 53.175049 117.73958 71.63594 120.51771 73.554167 C 123.29583 75.472395 125.74268 72.53501 126.73542 71.635937 C 127.71958 70.744631 128.21 69.515271 126.73542 69.519271 C 125.21263 69.523421 125.67708 67.46875 125.67708 67.46875 L 131.33255 49.44401 C 131.98231 47.373145 130.76053 46.999628 129.7528 47.010567 z M 220.33022 48.732426 C 220.38212 48.733134 220.43297 48.738226 220.48267 48.748446 C 223.84971 49.44166 221.51154 57.728776 221.51154 57.728776 C 221.51154 57.728776 217.72916 68.217837 213.79419 68.392725 C 211.68944 68.486265 213.46723 59.762188 215.01013 55.858089 C 216.07493 53.163788 218.72017 48.710469 220.33022 48.732426 z M 98.583647 48.907609 C 98.635584 48.908317 98.686397 48.913397 98.736092 48.923629 C 102.10315 49.616843 99.76497 57.903959 99.76497 57.903959 C 99.76497 57.903959 95.982591 68.39302 92.047611 68.567908 C 89.942868 68.661448 91.720651 59.937371 93.263558 56.033272 C 94.32835 53.338971 96.9736 48.885652 98.583647 48.907609 z M 168.03419 49.679138 C 168.307 49.683232 168.58609 49.744767 168.87031 49.873958 C 172.50833 51.527602 168.93646 60.986458 168.93646 60.986458 C 168.93646 60.986458 165.49687 71.70208 162.05729 70.048437 C 158.61773 68.394795 162.45417 57.613021 162.45417 57.613021 C 162.45417 57.613021 164.81505 49.630829 168.03419 49.679138 z " /></g><g
     inkscape:groupmode="layer"
     id="layer3"
     inkscape:label="Warstwa 3"><path
       style="opacity:1;fill:none;stroke:#000000;stroke-width:2.8;stroke-linecap:round;stroke-linejoin:round;stroke-dasharray:none"
       d="m 263.3273,36.201656 c 0,0 3.83532,-3.648228 1.12253,-16.65089 0,0 1.12254,-1.590254 5.23849,0.65481 0,0 -0.28064,8.138357 -4.95785,15.996081 0,0 5.51911,-3.835317 10.94468,-2.057975 0,0 -1.68379,2.619241 -5.7062,3.554685 0,0 5.98684,-1.870887 12.4414,3.274051 -0.004,0.01201 -2.47326,4.291234 -6.91177,1.090759 -1.79148,-1.291785 -4.14273,-2.087434 -7.14534,-2.685713 1.14894,0.0092 8.07412,2.138967 7.41546,5.804449 -0.68334,3.802824 0.0935,4.677217 0.0935,4.677217 0,0 -4.0224,-4.770761 -7.85772,-5.893293 -3.83532,-1.122532 -4.2095,-3.180507 -4.11595,-5.051394 0,0 -1.96439,3.367596 -7.95123,3.928862 0,0 -2.05798,0.09354 -3.46114,1.028988 0.46772,-0.187089 -0.28063,-5.986838 8.41899,-6.828737 0,0 -8.08578,0.659569 -6.89515,-10.717514 0,0 5.77819,8.101891 9.77354,8.608359"
       id="path9"
       sodipodi:nodetypes="cccccccscscscccccc" /></g></svg>
